<svg width="1154" height="345" viewBox="0 0 1154 345" fill="none" xmlns="http://www.w3.org/2000/svg">
<path d="M1097.15 168.916C1098.55 168.916 1099.67 169.615 1100.51 171.014C1101.63 172.132 1101.77 173.531 1100.93 175.209C1099.25 178.565 1097.01 181.781 1094.22 184.857C1091.42 187.934 1088.9 191.01 1086.66 194.087C1078.83 204.155 1070.58 211.427 1061.91 215.902C1053.52 220.098 1045.41 222.195 1037.58 222.195C1025.55 222.195 1015.48 218.28 1007.37 210.449C999.262 202.338 995.766 192.829 996.885 181.921C996.885 179.124 998.283 177.726 1001.08 177.726C1002.2 177.726 1003.32 178.285 1004.44 179.403C1005.28 180.242 1005.56 181.361 1005.28 182.76C1004.72 190.032 1007.51 197.164 1013.67 204.156C1020.1 210.869 1028.21 214.225 1038 214.225C1044.43 214.225 1051.28 212.267 1058.56 208.352C1065.83 204.436 1073.1 197.863 1080.37 188.634C1080.37 188.634 1081.21 187.515 1082.89 185.277C1084.85 183.04 1086.94 180.663 1089.18 178.146C1091.42 175.349 1092.96 173.111 1093.8 171.433C1094.63 169.755 1095.75 168.916 1097.15 168.916ZM1095.47 86.2686C1099.39 86.2686 1101.35 87.6671 1101.35 90.4639C1101.35 91.5826 1100.93 92.7016 1100.09 93.8203C1099.25 94.6594 1098.13 94.9389 1096.73 94.6592C1090.86 94.0999 1084.01 96.4771 1076.18 101.791C1068.62 107.105 1061.21 113.957 1053.94 122.348C1046.67 130.738 1040.52 139.689 1035.48 149.198C1030.73 158.428 1028.35 166.818 1028.35 174.369C1028.35 178.005 1029.05 181.082 1030.45 183.599C1031.85 186.116 1034.5 187.375 1038.42 187.375C1042.89 187.375 1047.65 185.977 1052.68 183.18C1057.72 180.103 1062.33 176.467 1066.53 172.271C1070.72 168.076 1073.8 164.161 1075.76 160.525C1076.59 159.127 1077.71 158.428 1079.11 158.428C1080.51 158.428 1081.77 159.127 1082.89 160.525C1084.01 161.644 1084.01 163.043 1082.89 164.721C1080.37 168.916 1076.73 173.53 1071.98 178.564C1067.23 183.319 1061.91 187.375 1056.04 190.731C1050.16 194.087 1044.29 195.766 1038.42 195.766C1032.54 195.766 1027.93 193.807 1024.57 189.892C1021.5 185.696 1019.96 180.383 1019.96 173.95C1019.96 165.56 1022.48 156.329 1027.51 146.261C1032.55 136.192 1038.98 126.683 1046.81 117.733C1054.92 108.504 1063.31 100.952 1071.98 95.0791C1080.65 89.2058 1088.48 86.2687 1095.47 86.2686ZM1084.57 105.986C1085.96 105.986 1087.08 106.546 1087.92 107.665C1089.04 108.784 1089.18 110.182 1088.34 111.86C1086.66 115.216 1085.41 118.432 1084.57 121.509C1084.01 124.585 1083.73 127.522 1083.73 130.319C1083.73 137.871 1086.24 143.744 1091.28 147.939C1096.31 151.855 1102.33 153.812 1109.32 153.812C1115.47 153.812 1121.76 152.275 1128.2 149.198C1134.63 146.122 1140.5 141.227 1145.82 134.515C1146.66 133.396 1147.64 132.836 1148.75 132.836C1150.15 132.836 1151.41 133.675 1152.53 135.354C1153.65 136.752 1153.65 138.15 1152.53 139.549C1146.1 147.38 1138.96 153.113 1131.13 156.749C1123.58 160.385 1116.17 162.203 1108.9 162.203C1099.67 162.203 1091.7 159.406 1084.99 153.812C1078.27 148.219 1074.92 140.667 1074.92 131.158C1074.92 127.802 1075.34 124.306 1076.18 120.67C1077.29 116.754 1078.83 112.699 1080.79 108.504C1081.63 106.826 1082.89 105.986 1084.57 105.986ZM1092.54 65.7119C1106.52 65.7119 1116.45 69.0681 1122.32 75.7803C1128.2 82.4927 1131.13 90.604 1131.13 100.113C1131.13 107.105 1129.88 114.237 1127.36 121.509C1124.84 128.78 1121.34 135.633 1116.87 142.065C1116.03 143.184 1115.05 143.744 1113.93 143.744C1112.26 143.744 1110.86 143.045 1109.74 141.646C1108.9 140.248 1109.04 138.709 1110.16 137.031C1118.55 124.725 1122.74 112.839 1122.74 101.372C1122.74 93.2612 1120.23 86.6886 1115.19 81.6543C1110.44 76.3403 1103.16 73.6826 1093.38 73.6826C1078.83 73.6827 1064.57 80.1161 1050.58 92.9814C1036.88 105.567 1022.76 121.369 1008.21 140.388C1007.37 141.227 1006.53 141.646 1005.7 141.646C1004.3 141.646 1003.18 140.807 1002.34 139.129C1001.22 137.451 1001.22 135.773 1002.34 134.095C1011.85 121.509 1021.36 110.042 1030.87 99.6934C1040.38 89.3452 1050.16 81.0944 1060.23 74.9414C1070.58 68.7884 1081.35 65.7119 1092.54 65.7119Z" fill="white"/>
<path d="M1097.15 168.916C1098.55 168.916 1099.67 169.615 1100.51 171.014C1101.63 172.132 1101.77 173.531 1100.93 175.209C1099.25 178.565 1097.01 181.781 1094.22 184.857C1091.42 187.934 1088.9 191.01 1086.66 194.087C1078.83 204.155 1070.58 211.427 1061.91 215.902C1053.52 220.098 1045.41 222.195 1037.58 222.195C1025.55 222.195 1015.48 218.28 1007.37 210.449C999.262 202.338 995.766 192.829 996.885 181.921C996.885 179.124 998.283 177.726 1001.08 177.726C1002.2 177.726 1003.32 178.285 1004.44 179.403C1005.28 180.242 1005.56 181.361 1005.28 182.76C1004.72 190.032 1007.51 197.164 1013.67 204.156C1020.1 210.869 1028.21 214.225 1038 214.225C1044.43 214.225 1051.28 212.267 1058.56 208.352C1065.83 204.436 1073.1 197.863 1080.37 188.634C1080.37 188.634 1081.21 187.515 1082.89 185.277C1084.85 183.04 1086.94 180.663 1089.18 178.146C1091.42 175.349 1092.96 173.111 1093.8 171.433C1094.63 169.755 1095.75 168.916 1097.15 168.916ZM1095.47 86.2686C1099.39 86.2686 1101.35 87.6671 1101.35 90.4639C1101.35 91.5826 1100.93 92.7016 1100.09 93.8203C1099.25 94.6594 1098.13 94.9389 1096.73 94.6592C1090.86 94.0999 1084.01 96.4771 1076.18 101.791C1068.62 107.105 1061.21 113.957 1053.94 122.348C1046.67 130.738 1040.52 139.689 1035.48 149.198C1030.73 158.428 1028.35 166.818 1028.35 174.369C1028.35 178.005 1029.05 181.082 1030.45 183.599C1031.85 186.116 1034.5 187.375 1038.42 187.375C1042.89 187.375 1047.65 185.977 1052.68 183.18C1057.72 180.103 1062.33 176.467 1066.53 172.271C1070.72 168.076 1073.8 164.161 1075.76 160.525C1076.59 159.127 1077.71 158.428 1079.11 158.428C1080.51 158.428 1081.77 159.127 1082.89 160.525C1084.01 161.644 1084.01 163.043 1082.89 164.721C1080.37 168.916 1076.73 173.53 1071.98 178.564C1067.23 183.319 1061.91 187.375 1056.04 190.731C1050.16 194.087 1044.29 195.766 1038.42 195.766C1032.54 195.766 1027.93 193.807 1024.57 189.892C1021.5 185.696 1019.96 180.383 1019.96 173.95C1019.96 165.56 1022.48 156.329 1027.51 146.261C1032.55 136.192 1038.98 126.683 1046.81 117.733C1054.92 108.504 1063.31 100.952 1071.98 95.0791C1080.65 89.2058 1088.48 86.2687 1095.47 86.2686ZM1084.57 105.986C1085.96 105.986 1087.08 106.546 1087.92 107.665C1089.04 108.784 1089.18 110.182 1088.34 111.86C1086.66 115.216 1085.41 118.432 1084.57 121.509C1084.01 124.585 1083.73 127.522 1083.73 130.319C1083.73 137.871 1086.24 143.744 1091.28 147.939C1096.31 151.855 1102.33 153.812 1109.32 153.812C1115.47 153.812 1121.76 152.275 1128.2 149.198C1134.63 146.122 1140.5 141.227 1145.82 134.515C1146.66 133.396 1147.64 132.836 1148.75 132.836C1150.15 132.836 1151.41 133.675 1152.53 135.354C1153.65 136.752 1153.65 138.15 1152.53 139.549C1146.1 147.38 1138.96 153.113 1131.13 156.749C1123.58 160.385 1116.17 162.203 1108.9 162.203C1099.67 162.203 1091.7 159.406 1084.99 153.812C1078.27 148.219 1074.92 140.667 1074.92 131.158C1074.92 127.802 1075.34 124.306 1076.18 120.67C1077.29 116.754 1078.83 112.699 1080.79 108.504C1081.63 106.826 1082.89 105.986 1084.57 105.986ZM1092.54 65.7119C1106.52 65.7119 1116.45 69.0681 1122.32 75.7803C1128.2 82.4927 1131.13 90.604 1131.13 100.113C1131.13 107.105 1129.88 114.237 1127.36 121.509C1124.84 128.78 1121.34 135.633 1116.87 142.065C1116.03 143.184 1115.05 143.744 1113.93 143.744C1112.26 143.744 1110.86 143.045 1109.74 141.646C1108.9 140.248 1109.04 138.709 1110.16 137.031C1118.55 124.725 1122.74 112.839 1122.74 101.372C1122.74 93.2612 1120.23 86.6886 1115.19 81.6543C1110.44 76.3403 1103.16 73.6826 1093.38 73.6826C1078.83 73.6827 1064.57 80.1161 1050.58 92.9814C1036.88 105.567 1022.76 121.369 1008.21 140.388C1007.37 141.227 1006.53 141.646 1005.7 141.646C1004.3 141.646 1003.18 140.807 1002.34 139.129C1001.22 137.451 1001.22 135.773 1002.34 134.095C1011.85 121.509 1021.36 110.042 1030.87 99.6934C1040.38 89.3452 1050.16 81.0944 1060.23 74.9414C1070.58 68.7884 1081.35 65.7119 1092.54 65.7119Z" stroke="white"/>
<path d="M916.925 108.084C918.324 108.084 919.583 108.783 920.702 110.182C921.82 111.58 921.68 113.119 920.282 114.797C916.926 119.272 913.569 125.285 910.213 132.836C907.137 140.387 904.48 147.799 902.243 155.071C900.285 162.343 899.166 167.797 898.886 171.433C898.047 181.781 900.564 191.151 906.437 199.541C912.31 207.932 921.121 212.127 932.868 212.127C940.139 212.127 948.67 210.029 958.458 205.834C968.247 201.359 978.876 193.947 990.343 183.599C990.903 183.04 991.741 182.76 992.86 182.76C994.818 182.76 996.216 183.739 997.055 185.696C998.174 187.374 997.894 188.913 996.216 190.312C984.19 200.94 972.723 208.631 961.815 213.386C951.187 217.861 941.398 220.098 932.448 220.098C918.743 220.098 907.976 215.343 900.145 205.834C892.594 196.325 889.377 184.578 890.496 170.594C890.775 166.398 892.034 160.525 894.271 152.974C896.508 145.143 899.305 137.312 902.662 129.48C906.298 121.37 909.934 114.797 913.57 109.763C914.409 108.644 915.527 108.084 916.925 108.084ZM950.488 53.5459C957.76 53.5459 964.332 56.0625 970.206 61.0967C976.079 65.8513 979.016 71.4453 979.016 77.8779C979.016 83.4716 976.079 88.6458 970.206 93.4004L968.108 95.0791C965.311 97.5961 962.375 100.253 959.298 103.05C956.501 105.847 954.123 108.923 952.166 112.279C949.089 118.712 945.594 125.845 941.678 133.676C938.042 141.227 934.826 148.779 932.029 156.33C929.512 163.881 928.252 170.594 928.252 176.467C928.252 182.9 930.91 186.116 936.224 186.116C938.741 186.116 941.818 185.417 945.454 184.019C954.124 180.383 963.074 174.649 972.303 166.818C981.533 158.987 991.461 148.219 1002.09 134.515C1002.93 133.396 1003.91 132.836 1005.03 132.836C1006.7 132.836 1008.1 133.675 1009.22 135.354C1010.34 136.752 1010.2 138.15 1008.8 139.549C1000.13 150.736 992.021 159.826 984.469 166.818C977.198 173.81 968.667 180.103 958.878 185.696C953.564 188.773 948.949 191.011 945.034 192.409C941.118 193.808 937.622 194.507 934.545 194.507C929.232 194.507 925.456 192.549 923.218 188.634C921.26 184.718 920.282 180.383 920.282 175.628C920.282 171.712 921.26 166.118 923.218 158.847C925.176 151.575 927.834 143.744 931.19 135.354C934.826 126.683 938.881 118.712 943.356 111.44C947.831 103.889 952.446 97.8753 957.201 93.4004C959.718 90.8834 962.375 88.6462 965.171 86.6885C967.968 82.7729 969.367 79.1365 969.367 75.7803C969.367 71.5851 967.408 68.3693 963.493 66.1318C959.857 63.6147 955.802 62.3555 951.327 62.3555C946.572 62.3555 942.937 63.4746 940.419 65.7119C936.504 69.3477 932.308 73.6826 927.833 78.7168C923.638 83.4714 919.163 89.0654 914.409 95.498C909.374 101.931 904.06 108.923 898.466 116.475C892.873 123.746 886.44 131.577 879.168 139.968C878.329 141.086 877.21 141.646 875.812 141.646C874.414 141.646 873.295 140.807 872.456 139.129C871.337 137.451 871.337 135.913 872.456 134.515C879.727 126.404 886.161 118.572 891.754 111.021C897.628 103.469 902.941 96.6168 907.696 90.4639C912.73 84.0312 917.345 78.298 921.541 73.2637C926.015 67.9497 930.49 63.3345 934.965 59.4189C939.161 55.5034 944.335 53.5459 950.488 53.5459ZM991.182 0.265625C998.174 0.265665 1004.05 2.64285 1008.8 7.39746C1013.56 12.1521 1015.93 18.0255 1015.93 25.0176C1015.93 31.73 1013.56 37.4641 1008.8 42.2188C1004.05 46.9733 998.174 49.3505 991.182 49.3506C984.47 49.3506 978.736 46.9734 973.981 42.2188C969.226 37.4641 966.849 31.73 966.849 25.0176C966.849 18.0256 969.226 12.152 973.981 7.39746C978.736 2.64281 984.47 0.265625 991.182 0.265625ZM991.182 8.65625C986.707 8.65625 982.931 10.1942 979.855 13.2705C976.778 16.347 975.24 20.263 975.24 25.0176C975.24 29.4925 976.778 33.2682 979.855 36.3447C982.932 39.4212 986.707 40.96 991.182 40.96C995.937 40.9599 999.853 39.4212 1002.93 36.3447C1006.01 33.2683 1007.54 29.4923 1007.54 25.0176C1007.54 20.263 1006.01 16.347 1002.93 13.2705C999.853 10.194 995.937 8.65629 991.182 8.65625Z" fill="white"/>
<path d="M916.925 108.084C918.324 108.084 919.583 108.783 920.702 110.182C921.82 111.58 921.68 113.119 920.282 114.797C916.926 119.272 913.569 125.285 910.213 132.836C907.137 140.387 904.48 147.799 902.243 155.071C900.285 162.343 899.166 167.797 898.886 171.433C898.047 181.781 900.564 191.151 906.437 199.541C912.31 207.932 921.121 212.127 932.868 212.127C940.139 212.127 948.67 210.029 958.458 205.834C968.247 201.359 978.876 193.947 990.343 183.599C990.903 183.04 991.741 182.76 992.86 182.76C994.818 182.76 996.216 183.739 997.055 185.696C998.174 187.374 997.894 188.913 996.216 190.312C984.19 200.94 972.723 208.631 961.815 213.386C951.187 217.861 941.398 220.098 932.448 220.098C918.743 220.098 907.976 215.343 900.145 205.834C892.594 196.325 889.377 184.578 890.496 170.594C890.775 166.398 892.034 160.525 894.271 152.974C896.508 145.143 899.305 137.312 902.662 129.48C906.298 121.37 909.934 114.797 913.57 109.763C914.409 108.644 915.527 108.084 916.925 108.084ZM950.488 53.5459C957.76 53.5459 964.332 56.0625 970.206 61.0967C976.079 65.8513 979.016 71.4453 979.016 77.8779C979.016 83.4716 976.079 88.6458 970.206 93.4004L968.108 95.0791C965.311 97.5961 962.375 100.253 959.298 103.05C956.501 105.847 954.123 108.923 952.166 112.279C949.089 118.712 945.594 125.845 941.678 133.676C938.042 141.227 934.826 148.779 932.029 156.33C929.512 163.881 928.252 170.594 928.252 176.467C928.252 182.9 930.91 186.116 936.224 186.116C938.741 186.116 941.818 185.417 945.454 184.019C954.124 180.383 963.074 174.649 972.303 166.818C981.533 158.987 991.461 148.219 1002.09 134.515C1002.93 133.396 1003.91 132.836 1005.03 132.836C1006.7 132.836 1008.1 133.675 1009.22 135.354C1010.34 136.752 1010.2 138.15 1008.8 139.549C1000.13 150.736 992.021 159.826 984.469 166.818C977.198 173.81 968.667 180.103 958.878 185.696C953.564 188.773 948.949 191.011 945.034 192.409C941.118 193.808 937.622 194.507 934.545 194.507C929.232 194.507 925.456 192.549 923.218 188.634C921.26 184.718 920.282 180.383 920.282 175.628C920.282 171.712 921.26 166.118 923.218 158.847C925.176 151.575 927.834 143.744 931.19 135.354C934.826 126.683 938.881 118.712 943.356 111.44C947.831 103.889 952.446 97.8753 957.201 93.4004C959.718 90.8834 962.375 88.6462 965.171 86.6885C967.968 82.7729 969.367 79.1365 969.367 75.7803C969.367 71.5851 967.408 68.3693 963.493 66.1318C959.857 63.6147 955.802 62.3555 951.327 62.3555C946.572 62.3555 942.937 63.4746 940.419 65.7119C936.504 69.3477 932.308 73.6826 927.833 78.7168C923.638 83.4714 919.163 89.0654 914.409 95.498C909.374 101.931 904.06 108.923 898.466 116.475C892.873 123.746 886.44 131.577 879.168 139.968C878.329 141.086 877.21 141.646 875.812 141.646C874.414 141.646 873.295 140.807 872.456 139.129C871.337 137.451 871.337 135.913 872.456 134.515C879.727 126.404 886.161 118.572 891.754 111.021C897.628 103.469 902.941 96.6168 907.696 90.4639C912.73 84.0312 917.345 78.298 921.541 73.2637C926.015 67.9497 930.49 63.3345 934.965 59.4189C939.161 55.5034 944.335 53.5459 950.488 53.5459ZM991.182 0.265625C998.174 0.265665 1004.05 2.64285 1008.8 7.39746C1013.56 12.1521 1015.93 18.0255 1015.93 25.0176C1015.93 31.73 1013.56 37.4641 1008.8 42.2188C1004.05 46.9733 998.174 49.3505 991.182 49.3506C984.47 49.3506 978.736 46.9734 973.981 42.2188C969.226 37.4641 966.849 31.73 966.849 25.0176C966.849 18.0256 969.226 12.152 973.981 7.39746C978.736 2.64281 984.47 0.265625 991.182 0.265625ZM991.182 8.65625C986.707 8.65625 982.931 10.1942 979.855 13.2705C976.778 16.347 975.24 20.263 975.24 25.0176C975.24 29.4925 976.778 33.2682 979.855 36.3447C982.932 39.4212 986.707 40.96 991.182 40.96C995.937 40.9599 999.853 39.4212 1002.93 36.3447C1006.01 33.2683 1007.54 29.4923 1007.54 25.0176C1007.54 20.263 1006.01 16.347 1002.93 13.2705C999.853 10.194 995.937 8.65629 991.182 8.65625Z" stroke="white"/>
<path d="M708.388 170.593C711.184 170.593 712.583 171.991 712.583 174.788C712.303 184.577 714.541 193.108 719.296 200.38C724.33 207.651 732.022 211.287 742.37 211.287C752.998 211.287 762.367 208.49 770.478 202.896C778.588 197.023 786.141 189.751 793.133 181.081C793.972 179.963 795.09 179.403 796.488 179.403C797.887 179.403 799.146 180.242 800.265 181.92C801.383 183.318 801.243 184.717 799.845 186.115C792.293 195.345 783.902 203.316 774.673 210.028C765.723 216.461 754.956 219.678 742.37 219.678C733.141 219.678 725.588 217.441 719.715 212.966C714.121 208.491 710.066 202.757 707.549 195.765C705.032 188.773 703.913 181.78 704.192 174.788C704.192 171.992 705.591 170.593 708.388 170.593ZM752.438 46.4131C758.312 46.4131 763.207 48.3706 767.122 52.2861C771.038 56.2017 772.995 61.2366 772.995 67.3896C772.995 72.4238 771.317 77.7376 767.961 83.3311C767.122 85.0092 765.304 89.0653 762.507 95.498C759.71 101.651 756.634 109.203 753.277 118.152C750.201 127.102 747.544 136.192 745.307 145.422C743.069 154.372 741.95 162.343 741.95 169.335C741.95 174.649 742.79 178.984 744.468 182.34C746.426 185.416 749.502 186.955 753.697 186.955C755.655 186.955 759.291 185.137 764.604 181.501C770.198 177.585 774.394 173.39 777.19 168.915C778.029 167.517 779.288 166.817 780.966 166.817C782.364 166.817 783.483 167.517 784.322 168.915C785.441 170.034 785.581 171.432 784.742 173.11C782.784 176.746 779.847 180.242 775.932 183.599C772.016 186.955 767.961 189.752 763.766 191.989C759.85 194.227 756.494 195.346 753.697 195.346C746.425 195.346 741.251 192.968 738.175 188.213C735.378 183.179 733.979 176.746 733.979 168.915C733.979 161.084 735.097 152.414 737.335 142.904C739.572 133.395 742.23 124.166 745.307 115.216C748.663 106.266 751.739 98.5744 754.536 92.1416C757.613 85.4292 759.71 81.0935 760.829 79.1357C763.346 74.9407 764.604 71.0254 764.604 67.3896C764.604 63.7538 763.486 60.8166 761.248 58.5791C759.011 56.3419 756.074 55.2237 752.438 55.2236C748.803 55.2236 744.607 56.7614 739.853 59.8379C735.378 62.9144 731.182 68.0886 727.267 75.3604C721.953 84.8695 716.079 95.4975 709.646 107.244C703.493 118.991 696.362 129.759 688.251 139.548C687.132 140.667 685.873 141.227 684.475 141.227C683.076 141.226 681.958 140.527 681.119 139.129C680.28 137.73 680.419 136.192 681.538 134.514C689.649 124.725 696.641 114.097 702.515 102.63C708.668 91.1628 714.401 80.6743 719.715 71.165C724.749 62.2151 730.064 55.922 735.657 52.2861C741.531 48.3706 747.125 46.4131 752.438 46.4131ZM726.428 108.084C727.826 108.084 729.084 108.783 730.203 110.182C731.322 111.3 731.322 112.699 730.203 114.377C723.211 126.963 716.638 137.87 710.485 147.1C704.332 156.329 695.802 166.258 684.895 176.886C684.056 177.725 683.077 178.144 681.958 178.145C680.28 178.145 679.021 177.306 678.182 175.628C677.063 173.95 677.343 172.411 679.021 171.013C689.649 160.664 697.76 151.015 703.354 142.065C709.227 133.116 715.66 122.488 722.652 110.182C723.491 108.783 724.75 108.084 726.428 108.084ZM821.241 71.585C825.716 71.5851 829.492 73.4024 832.568 77.0381C835.645 80.674 837.183 86.4081 837.183 94.2393C837.183 96.4767 836.903 98.9942 836.344 101.791C836.064 104.588 835.644 107.524 835.085 110.601C833.407 118.152 831.03 125.564 827.953 132.836C825.156 140.108 822.359 146.12 819.562 150.875C819.003 152.273 817.745 152.973 815.787 152.973C814.389 152.973 813.129 152.414 812.011 151.295C810.892 149.897 810.892 148.358 812.011 146.68C814.528 142.484 817.186 136.891 819.982 129.899C823.059 122.907 825.436 115.915 827.114 108.923C827.674 105.846 828.093 103.049 828.373 100.532C828.932 98.0151 829.212 95.7771 829.212 93.8193C829.212 89.0648 828.372 85.5685 826.694 83.3311C825.016 81.0939 823.059 79.9756 820.821 79.9756C818.024 79.9756 814.948 81.374 811.592 84.1709C808.515 86.688 805.859 90.3237 803.621 95.0781C801.384 99.8328 799.146 106.126 796.908 113.957C794.95 121.508 793.972 129.06 793.972 136.611C793.972 145.002 795.79 152.414 799.426 158.847C803.341 164.999 810.333 168.076 820.401 168.076C825.436 168.076 831.17 166.398 837.603 163.042C844.035 159.406 850.328 155.07 856.481 150.036C862.634 144.722 867.948 139.548 872.423 134.514C873.262 133.395 874.381 132.836 875.779 132.836C877.178 132.836 878.297 133.675 879.136 135.353C880.254 137.031 880.114 138.569 878.716 139.968C874.241 144.722 868.647 150.037 861.935 155.91C855.222 161.504 848.23 166.398 840.959 170.593C833.687 174.508 826.834 176.467 820.401 176.467C807.256 176.467 798.167 172.411 793.133 164.3C788.378 156.189 786.001 146.96 786.001 136.611C786.001 128.501 786.98 120.39 788.938 112.279C790.895 104.168 793.272 97.3154 796.069 91.7217C799.146 85.2891 802.922 80.3942 807.396 77.0381C812.151 73.4023 816.766 71.585 821.241 71.585Z" fill="white"/>
<path d="M708.388 170.593C711.184 170.593 712.583 171.991 712.583 174.788C712.303 184.577 714.541 193.108 719.296 200.38C724.33 207.651 732.022 211.287 742.37 211.287C752.998 211.287 762.367 208.49 770.478 202.896C778.588 197.023 786.141 189.751 793.133 181.081C793.972 179.963 795.09 179.403 796.488 179.403C797.887 179.403 799.146 180.242 800.265 181.92C801.383 183.318 801.243 184.717 799.845 186.115C792.293 195.345 783.902 203.316 774.673 210.028C765.723 216.461 754.956 219.678 742.37 219.678C733.141 219.678 725.588 217.441 719.715 212.966C714.121 208.491 710.066 202.757 707.549 195.765C705.032 188.773 703.913 181.78 704.192 174.788C704.192 171.992 705.591 170.593 708.388 170.593ZM752.438 46.4131C758.312 46.4131 763.207 48.3706 767.122 52.2861C771.038 56.2017 772.995 61.2366 772.995 67.3896C772.995 72.4238 771.317 77.7376 767.961 83.3311C767.122 85.0092 765.304 89.0653 762.507 95.498C759.71 101.651 756.634 109.203 753.277 118.152C750.201 127.102 747.544 136.192 745.307 145.422C743.069 154.372 741.95 162.343 741.95 169.335C741.95 174.649 742.79 178.984 744.468 182.34C746.426 185.416 749.502 186.955 753.697 186.955C755.655 186.955 759.291 185.137 764.604 181.501C770.198 177.585 774.394 173.39 777.19 168.915C778.029 167.517 779.288 166.817 780.966 166.817C782.364 166.817 783.483 167.517 784.322 168.915C785.441 170.034 785.581 171.432 784.742 173.11C782.784 176.746 779.847 180.242 775.932 183.599C772.016 186.955 767.961 189.752 763.766 191.989C759.85 194.227 756.494 195.346 753.697 195.346C746.425 195.346 741.251 192.968 738.175 188.213C735.378 183.179 733.979 176.746 733.979 168.915C733.979 161.084 735.097 152.414 737.335 142.904C739.572 133.395 742.23 124.166 745.307 115.216C748.663 106.266 751.739 98.5744 754.536 92.1416C757.613 85.4292 759.71 81.0935 760.829 79.1357C763.346 74.9407 764.604 71.0254 764.604 67.3896C764.604 63.7538 763.486 60.8166 761.248 58.5791C759.011 56.3419 756.074 55.2237 752.438 55.2236C748.803 55.2236 744.607 56.7614 739.853 59.8379C735.378 62.9144 731.182 68.0886 727.267 75.3604C721.953 84.8695 716.079 95.4975 709.646 107.244C703.493 118.991 696.362 129.759 688.251 139.548C687.132 140.667 685.873 141.227 684.475 141.227C683.076 141.226 681.958 140.527 681.119 139.129C680.28 137.73 680.419 136.192 681.538 134.514C689.649 124.725 696.641 114.097 702.515 102.63C708.668 91.1628 714.401 80.6743 719.715 71.165C724.749 62.2151 730.064 55.922 735.657 52.2861C741.531 48.3706 747.125 46.4131 752.438 46.4131ZM726.428 108.084C727.826 108.084 729.084 108.783 730.203 110.182C731.322 111.3 731.322 112.699 730.203 114.377C723.211 126.963 716.638 137.87 710.485 147.1C704.332 156.329 695.802 166.258 684.895 176.886C684.056 177.725 683.077 178.144 681.958 178.145C680.28 178.145 679.021 177.306 678.182 175.628C677.063 173.95 677.343 172.411 679.021 171.013C689.649 160.664 697.76 151.015 703.354 142.065C709.227 133.116 715.66 122.488 722.652 110.182C723.491 108.783 724.75 108.084 726.428 108.084ZM821.241 71.585C825.716 71.5851 829.492 73.4024 832.568 77.0381C835.645 80.674 837.183 86.4081 837.183 94.2393C837.183 96.4767 836.903 98.9942 836.344 101.791C836.064 104.588 835.644 107.524 835.085 110.601C833.407 118.152 831.03 125.564 827.953 132.836C825.156 140.108 822.359 146.12 819.562 150.875C819.003 152.273 817.745 152.973 815.787 152.973C814.389 152.973 813.129 152.414 812.011 151.295C810.892 149.897 810.892 148.358 812.011 146.68C814.528 142.484 817.186 136.891 819.982 129.899C823.059 122.907 825.436 115.915 827.114 108.923C827.674 105.846 828.093 103.049 828.373 100.532C828.932 98.0151 829.212 95.7771 829.212 93.8193C829.212 89.0648 828.372 85.5685 826.694 83.3311C825.016 81.0939 823.059 79.9756 820.821 79.9756C818.024 79.9756 814.948 81.374 811.592 84.1709C808.515 86.688 805.859 90.3237 803.621 95.0781C801.384 99.8328 799.146 106.126 796.908 113.957C794.95 121.508 793.972 129.06 793.972 136.611C793.972 145.002 795.79 152.414 799.426 158.847C803.341 164.999 810.333 168.076 820.401 168.076C825.436 168.076 831.17 166.398 837.603 163.042C844.035 159.406 850.328 155.07 856.481 150.036C862.634 144.722 867.948 139.548 872.423 134.514C873.262 133.395 874.381 132.836 875.779 132.836C877.178 132.836 878.297 133.675 879.136 135.353C880.254 137.031 880.114 138.569 878.716 139.968C874.241 144.722 868.647 150.037 861.935 155.91C855.222 161.504 848.23 166.398 840.959 170.593C833.687 174.508 826.834 176.467 820.401 176.467C807.256 176.467 798.167 172.411 793.133 164.3C788.378 156.189 786.001 146.96 786.001 136.611C786.001 128.501 786.98 120.39 788.938 112.279C790.895 104.168 793.272 97.3154 796.069 91.7217C799.146 85.2891 802.922 80.3942 807.396 77.0381C812.151 73.4023 816.766 71.585 821.241 71.585Z" stroke="white"/>
<path d="M632.968 168.916C634.367 168.916 635.485 169.615 636.324 171.014C637.442 172.132 637.583 173.531 636.744 175.209C635.066 178.565 632.828 181.781 630.032 184.857C627.235 187.934 624.717 191.01 622.48 194.087C614.649 204.155 606.398 211.427 597.728 215.902C589.337 220.098 581.226 222.195 573.395 222.195C561.369 222.195 551.3 218.28 543.189 210.449C535.078 202.338 531.582 192.829 532.701 181.921C532.701 179.124 534.099 177.726 536.896 177.726C538.015 177.726 539.134 178.285 540.252 179.403C541.091 180.242 541.371 181.361 541.091 182.76C540.532 190.032 543.329 197.164 549.482 204.156C555.915 210.869 564.026 214.225 573.815 214.225C580.248 214.225 587.1 212.267 594.372 208.352C601.643 204.436 608.915 197.863 616.187 188.634C616.187 188.634 617.026 187.515 618.704 185.277C620.661 183.04 622.759 180.663 624.997 178.146C627.234 175.349 628.773 173.111 629.612 171.433C630.451 169.755 631.57 168.916 632.968 168.916ZM631.29 86.2686C635.205 86.2686 637.164 87.6671 637.164 90.4639C637.164 91.5826 636.744 92.7016 635.905 93.8203C635.066 94.6594 633.947 94.9389 632.548 94.6592C626.675 94.0998 619.823 96.4771 611.992 101.791C604.44 107.105 597.028 113.957 589.756 122.348C582.485 130.738 576.332 139.689 571.297 149.198C566.543 158.428 564.166 166.818 564.166 174.369C564.166 178.005 564.865 181.082 566.263 183.599C567.662 186.116 570.318 187.375 574.234 187.375C578.709 187.375 583.464 185.977 588.499 183.18C593.533 180.103 598.147 176.467 602.342 172.271C606.537 168.076 609.614 164.161 611.572 160.525C612.411 159.127 613.53 158.428 614.928 158.428C616.327 158.428 617.585 159.127 618.704 160.525C619.822 161.644 619.822 163.043 618.704 164.721C616.186 168.916 612.551 173.53 607.796 178.564C603.042 183.319 597.727 187.375 591.854 190.731C585.981 194.088 580.107 195.766 574.234 195.766C568.361 195.766 563.746 193.807 560.39 189.892C557.314 185.696 555.775 180.383 555.775 173.95C555.775 165.56 558.292 156.329 563.327 146.261C568.361 136.192 574.794 126.683 582.625 117.733C590.735 108.504 599.126 100.952 607.796 95.0791C616.466 89.2058 624.298 86.2686 631.29 86.2686ZM620.382 105.986C621.781 105.986 622.9 106.546 623.739 107.665C624.857 108.784 624.997 110.182 624.158 111.86C622.48 115.216 621.221 118.432 620.382 121.509C619.823 124.585 619.543 127.522 619.543 130.319C619.544 137.871 622.06 143.744 627.094 147.939C632.129 151.855 638.142 153.812 645.134 153.812C651.287 153.812 657.58 152.275 664.013 149.198C670.446 146.122 676.319 141.227 681.633 134.515C682.472 133.396 683.451 132.836 684.57 132.836C685.968 132.836 687.226 133.675 688.345 135.354C689.464 136.752 689.464 138.15 688.345 139.549C681.913 147.38 674.781 153.113 666.95 156.749C659.398 160.385 651.986 162.203 644.714 162.203C635.485 162.203 627.514 159.406 620.801 153.812C614.089 148.219 610.733 140.667 610.733 131.158C610.733 127.802 611.153 124.306 611.992 120.67C613.11 116.754 614.648 112.699 616.606 108.504C617.445 106.826 618.704 105.986 620.382 105.986ZM628.353 65.7119C642.337 65.7119 652.266 69.0681 658.139 75.7803C664.013 82.4927 666.95 90.604 666.95 100.113C666.95 107.105 665.691 114.237 663.174 121.509C660.657 128.78 657.161 135.633 652.686 142.065C651.847 143.184 650.868 143.744 649.75 143.744C648.072 143.744 646.673 143.045 645.554 141.646C644.715 140.248 644.854 138.709 645.973 137.031C654.364 124.725 658.559 112.839 658.559 101.372C658.559 93.2612 656.042 86.6886 651.007 81.6543C646.253 76.3403 638.981 73.6826 629.192 73.6826C614.648 73.6827 600.385 80.1161 586.401 92.9814C572.696 105.567 558.571 121.369 544.028 140.388C543.189 141.227 542.35 141.646 541.511 141.646C540.113 141.646 538.994 140.807 538.155 139.129C537.036 137.451 537.036 135.773 538.155 134.095C547.664 121.509 557.174 110.042 566.683 99.6934C576.192 89.3452 585.981 81.0944 596.049 74.9414C606.398 68.7884 617.166 65.7119 628.353 65.7119Z" fill="white"/>
<path d="M632.968 168.916C634.367 168.916 635.485 169.615 636.324 171.014C637.442 172.132 637.583 173.531 636.744 175.209C635.066 178.565 632.828 181.781 630.032 184.857C627.235 187.934 624.717 191.01 622.48 194.087C614.649 204.155 606.398 211.427 597.728 215.902C589.337 220.098 581.226 222.195 573.395 222.195C561.369 222.195 551.3 218.28 543.189 210.449C535.078 202.338 531.582 192.829 532.701 181.921C532.701 179.124 534.099 177.726 536.896 177.726C538.015 177.726 539.134 178.285 540.252 179.403C541.091 180.242 541.371 181.361 541.091 182.76C540.532 190.032 543.329 197.164 549.482 204.156C555.915 210.869 564.026 214.225 573.815 214.225C580.248 214.225 587.1 212.267 594.372 208.352C601.643 204.436 608.915 197.863 616.187 188.634C616.187 188.634 617.026 187.515 618.704 185.277C620.661 183.04 622.759 180.663 624.997 178.146C627.234 175.349 628.773 173.111 629.612 171.433C630.451 169.755 631.57 168.916 632.968 168.916ZM631.29 86.2686C635.205 86.2686 637.164 87.6671 637.164 90.4639C637.164 91.5826 636.744 92.7016 635.905 93.8203C635.066 94.6594 633.947 94.9389 632.548 94.6592C626.675 94.0998 619.823 96.4771 611.992 101.791C604.44 107.105 597.028 113.957 589.756 122.348C582.485 130.738 576.332 139.689 571.297 149.198C566.543 158.428 564.166 166.818 564.166 174.369C564.166 178.005 564.865 181.082 566.263 183.599C567.662 186.116 570.318 187.375 574.234 187.375C578.709 187.375 583.464 185.977 588.499 183.18C593.533 180.103 598.147 176.467 602.342 172.271C606.537 168.076 609.614 164.161 611.572 160.525C612.411 159.127 613.53 158.428 614.928 158.428C616.327 158.428 617.585 159.127 618.704 160.525C619.822 161.644 619.822 163.043 618.704 164.721C616.186 168.916 612.551 173.53 607.796 178.564C603.042 183.319 597.727 187.375 591.854 190.731C585.981 194.088 580.107 195.766 574.234 195.766C568.361 195.766 563.746 193.807 560.39 189.892C557.314 185.696 555.775 180.383 555.775 173.95C555.775 165.56 558.292 156.329 563.327 146.261C568.361 136.192 574.794 126.683 582.625 117.733C590.735 108.504 599.126 100.952 607.796 95.0791C616.466 89.2058 624.298 86.2686 631.29 86.2686ZM620.382 105.986C621.781 105.986 622.9 106.546 623.739 107.665C624.857 108.784 624.997 110.182 624.158 111.86C622.48 115.216 621.221 118.432 620.382 121.509C619.823 124.585 619.543 127.522 619.543 130.319C619.544 137.871 622.06 143.744 627.094 147.939C632.129 151.855 638.142 153.812 645.134 153.812C651.287 153.812 657.58 152.275 664.013 149.198C670.446 146.122 676.319 141.227 681.633 134.515C682.472 133.396 683.451 132.836 684.57 132.836C685.968 132.836 687.226 133.675 688.345 135.354C689.464 136.752 689.464 138.15 688.345 139.549C681.913 147.38 674.781 153.113 666.95 156.749C659.398 160.385 651.986 162.203 644.714 162.203C635.485 162.203 627.514 159.406 620.801 153.812C614.089 148.219 610.733 140.667 610.733 131.158C610.733 127.802 611.153 124.306 611.992 120.67C613.11 116.754 614.648 112.699 616.606 108.504C617.445 106.826 618.704 105.986 620.382 105.986ZM628.353 65.7119C642.337 65.7119 652.266 69.0681 658.139 75.7803C664.013 82.4927 666.95 90.604 666.95 100.113C666.95 107.105 665.691 114.237 663.174 121.509C660.657 128.78 657.161 135.633 652.686 142.065C651.847 143.184 650.868 143.744 649.75 143.744C648.072 143.744 646.673 143.045 645.554 141.646C644.715 140.248 644.854 138.709 645.973 137.031C654.364 124.725 658.559 112.839 658.559 101.372C658.559 93.2612 656.042 86.6886 651.007 81.6543C646.253 76.3403 638.981 73.6826 629.192 73.6826C614.648 73.6827 600.385 80.1161 586.401 92.9814C572.696 105.567 558.571 121.369 544.028 140.388C543.189 141.227 542.35 141.646 541.511 141.646C540.113 141.646 538.994 140.807 538.155 139.129C537.036 137.451 537.036 135.773 538.155 134.095C547.664 121.509 557.174 110.042 566.683 99.6934C576.192 89.3452 585.981 81.0944 596.049 74.9414C606.398 68.7884 617.166 65.7119 628.353 65.7119Z" stroke="white"/>
<path d="M489.166 168.916C490.564 168.916 491.682 169.615 492.521 171.014C493.64 172.132 493.78 173.531 492.941 175.209C491.263 178.565 489.026 181.781 486.229 184.857C483.432 187.934 480.915 191.01 478.677 194.087C470.846 204.155 462.595 211.427 453.925 215.902C445.535 220.098 437.423 222.195 429.592 222.195C417.566 222.195 407.497 218.28 399.386 210.449C391.275 202.338 387.779 192.829 388.898 181.921C388.898 179.124 390.297 177.726 393.093 177.726C394.212 177.726 395.331 178.285 396.45 179.403C397.289 180.242 397.568 181.361 397.289 182.76C396.729 190.032 399.526 197.164 405.679 204.156C412.112 210.869 420.223 214.225 430.012 214.225C436.445 214.225 443.297 212.267 450.569 208.352C457.841 204.436 465.113 197.863 472.384 188.634C472.384 188.634 473.223 187.515 474.901 185.277C476.859 183.04 478.956 180.663 481.194 178.146C483.431 175.349 484.97 173.111 485.809 171.433C486.648 169.755 487.767 168.916 489.166 168.916ZM487.487 86.2686C491.402 86.2686 493.361 87.6671 493.361 90.4639C493.361 91.5826 492.941 92.7016 492.102 93.8203C491.263 94.6594 490.144 94.9389 488.746 94.6592C482.872 94.0999 476.02 96.4771 468.189 101.791C460.637 107.105 453.225 113.957 445.954 122.348C438.682 130.738 432.529 139.689 427.495 149.198C422.74 158.428 420.363 166.818 420.363 174.369C420.363 178.005 421.062 181.082 422.46 183.599C423.859 186.116 426.516 187.375 430.431 187.375C434.906 187.375 439.661 185.977 444.696 183.18C449.73 180.103 454.344 176.467 458.54 172.271C462.735 168.076 465.811 164.161 467.769 160.525C468.608 159.127 469.727 158.428 471.125 158.428C472.524 158.428 473.782 159.127 474.901 160.525C476.02 161.644 476.02 163.043 474.901 164.721C472.384 168.916 468.748 173.53 463.994 178.564C459.239 183.319 453.925 187.375 448.051 190.731C442.178 194.088 436.304 195.766 430.431 195.766C424.558 195.766 419.944 193.807 416.587 189.892C413.511 185.696 411.972 180.383 411.972 173.95C411.972 165.56 414.49 156.329 419.524 146.261C424.558 136.192 430.991 126.683 438.822 117.733C446.933 108.504 455.323 100.952 463.994 95.0791C472.664 89.2058 480.495 86.2686 487.487 86.2686ZM476.58 105.986C477.978 105.986 479.097 106.546 479.936 107.665C481.054 108.784 481.194 110.182 480.355 111.86C478.677 115.216 477.419 118.432 476.58 121.509C476.02 124.585 475.741 127.522 475.741 130.319C475.741 137.871 478.257 143.744 483.292 147.939C488.326 151.855 494.339 153.812 501.332 153.812C507.485 153.812 513.778 152.275 520.21 149.198C526.643 146.122 532.517 141.227 537.831 134.515C538.67 133.396 539.648 132.836 540.767 132.836C542.165 132.836 543.424 133.675 544.542 135.354C545.661 136.752 545.661 138.15 544.542 139.549C538.11 147.38 530.978 153.113 523.147 156.749C515.595 160.385 508.183 162.203 500.912 162.203C491.682 162.203 483.711 159.406 476.999 153.812C470.286 148.219 466.93 140.667 466.93 131.158C466.93 127.802 467.35 124.306 468.189 120.67C469.308 116.754 470.846 112.699 472.803 108.504C473.642 106.826 474.901 105.986 476.58 105.986ZM484.55 65.7119C498.534 65.7119 508.463 69.0681 514.336 75.7803C520.21 82.4927 523.147 90.604 523.147 100.113C523.147 107.105 521.889 114.237 519.372 121.509C516.854 128.78 513.358 135.633 508.883 142.065C508.044 143.184 507.065 143.744 505.947 143.744C504.269 143.744 502.87 143.045 501.751 141.646C500.912 140.248 501.052 138.709 502.17 137.031C510.561 124.725 514.756 112.839 514.756 101.372C514.756 93.2612 512.239 86.6886 507.205 81.6543C502.45 76.3403 495.178 73.6826 485.389 73.6826C470.846 73.6827 456.582 80.1161 442.598 92.9814C428.894 105.567 414.769 121.369 400.225 140.388C399.386 141.227 398.547 141.646 397.708 141.646C396.31 141.646 395.191 140.807 394.352 139.129C393.233 137.451 393.233 135.773 394.352 134.095C403.861 121.509 413.371 110.042 422.88 99.6934C432.39 89.3452 442.178 81.0944 452.247 74.9414C462.595 68.7884 473.363 65.7119 484.55 65.7119Z" fill="white"/>
<path d="M489.166 168.916C490.564 168.916 491.682 169.615 492.521 171.014C493.64 172.132 493.78 173.531 492.941 175.209C491.263 178.565 489.026 181.781 486.229 184.857C483.432 187.934 480.915 191.01 478.677 194.087C470.846 204.155 462.595 211.427 453.925 215.902C445.535 220.098 437.423 222.195 429.592 222.195C417.566 222.195 407.497 218.28 399.386 210.449C391.275 202.338 387.779 192.829 388.898 181.921C388.898 179.124 390.297 177.726 393.093 177.726C394.212 177.726 395.331 178.285 396.45 179.403C397.289 180.242 397.568 181.361 397.289 182.76C396.729 190.032 399.526 197.164 405.679 204.156C412.112 210.869 420.223 214.225 430.012 214.225C436.445 214.225 443.297 212.267 450.569 208.352C457.841 204.436 465.113 197.863 472.384 188.634C472.384 188.634 473.223 187.515 474.901 185.277C476.859 183.04 478.956 180.663 481.194 178.146C483.431 175.349 484.97 173.111 485.809 171.433C486.648 169.755 487.767 168.916 489.166 168.916ZM487.487 86.2686C491.402 86.2686 493.361 87.6671 493.361 90.4639C493.361 91.5826 492.941 92.7016 492.102 93.8203C491.263 94.6594 490.144 94.9389 488.746 94.6592C482.872 94.0999 476.02 96.4771 468.189 101.791C460.637 107.105 453.225 113.957 445.954 122.348C438.682 130.738 432.529 139.689 427.495 149.198C422.74 158.428 420.363 166.818 420.363 174.369C420.363 178.005 421.062 181.082 422.46 183.599C423.859 186.116 426.516 187.375 430.431 187.375C434.906 187.375 439.661 185.977 444.696 183.18C449.73 180.103 454.344 176.467 458.54 172.271C462.735 168.076 465.811 164.161 467.769 160.525C468.608 159.127 469.727 158.428 471.125 158.428C472.524 158.428 473.782 159.127 474.901 160.525C476.02 161.644 476.02 163.043 474.901 164.721C472.384 168.916 468.748 173.53 463.994 178.564C459.239 183.319 453.925 187.375 448.051 190.731C442.178 194.088 436.304 195.766 430.431 195.766C424.558 195.766 419.944 193.807 416.587 189.892C413.511 185.696 411.972 180.383 411.972 173.95C411.972 165.56 414.49 156.329 419.524 146.261C424.558 136.192 430.991 126.683 438.822 117.733C446.933 108.504 455.323 100.952 463.994 95.0791C472.664 89.2058 480.495 86.2686 487.487 86.2686ZM476.58 105.986C477.978 105.986 479.097 106.546 479.936 107.665C481.054 108.784 481.194 110.182 480.355 111.86C478.677 115.216 477.419 118.432 476.58 121.509C476.02 124.585 475.741 127.522 475.741 130.319C475.741 137.871 478.257 143.744 483.292 147.939C488.326 151.855 494.339 153.812 501.332 153.812C507.485 153.812 513.778 152.275 520.21 149.198C526.643 146.122 532.517 141.227 537.831 134.515C538.67 133.396 539.648 132.836 540.767 132.836C542.165 132.836 543.424 133.675 544.542 135.354C545.661 136.752 545.661 138.15 544.542 139.549C538.11 147.38 530.978 153.113 523.147 156.749C515.595 160.385 508.183 162.203 500.912 162.203C491.682 162.203 483.711 159.406 476.999 153.812C470.286 148.219 466.93 140.667 466.93 131.158C466.93 127.802 467.35 124.306 468.189 120.67C469.308 116.754 470.846 112.699 472.803 108.504C473.642 106.826 474.901 105.986 476.58 105.986ZM484.55 65.7119C498.534 65.7119 508.463 69.0681 514.336 75.7803C520.21 82.4927 523.147 90.604 523.147 100.113C523.147 107.105 521.889 114.237 519.372 121.509C516.854 128.78 513.358 135.633 508.883 142.065C508.044 143.184 507.065 143.744 505.947 143.744C504.269 143.744 502.87 143.045 501.751 141.646C500.912 140.248 501.052 138.709 502.17 137.031C510.561 124.725 514.756 112.839 514.756 101.372C514.756 93.2612 512.239 86.6886 507.205 81.6543C502.45 76.3403 495.178 73.6826 485.389 73.6826C470.846 73.6827 456.582 80.1161 442.598 92.9814C428.894 105.567 414.769 121.369 400.225 140.388C399.386 141.227 398.547 141.646 397.708 141.646C396.31 141.646 395.191 140.807 394.352 139.129C393.233 137.451 393.233 135.773 394.352 134.095C403.861 121.509 413.371 110.042 422.88 99.6934C432.39 89.3452 442.178 81.0944 452.247 74.9414C462.595 68.7884 473.363 65.7119 484.55 65.7119Z" stroke="white"/>
<path d="M323.521 102.21C324.919 102.21 326.178 102.909 327.296 104.308C328.415 105.706 328.275 107.245 326.876 108.923C322.122 115.635 316.389 123.886 309.676 133.675C303.244 143.464 297.51 153.533 292.476 163.881C287.721 173.95 285.343 183.04 285.343 191.15C285.343 198.702 287.581 204.435 292.056 208.351C296.811 211.986 303.104 213.805 310.935 213.805C321.004 213.805 331.911 211.147 343.658 205.833C355.684 200.519 364.914 193.807 371.347 185.696C372.186 184.578 373.304 184.018 374.703 184.018C376.101 184.018 377.36 184.857 378.479 186.535C379.598 187.934 379.457 189.332 378.059 190.73C370.508 199.68 360.579 207.232 348.273 213.385C335.967 219.258 324.08 222.195 312.613 222.195C303.104 222.195 294.713 219.818 287.441 215.063C280.449 210.309 276.953 202.338 276.953 191.15C276.953 182.201 279.47 172.411 284.504 161.783C289.539 150.875 295.412 140.387 302.125 130.318C308.837 119.97 314.851 111.16 320.165 103.889C321.004 102.77 322.123 102.21 323.521 102.21ZM322.681 73.2627C333.589 73.2627 343.378 74.9407 352.048 78.2969C360.998 81.3734 365.473 87.387 365.473 96.3369C365.473 101.931 363.516 108.224 359.6 115.216C354.566 124.725 348.692 133.675 341.98 142.065C335.547 150.176 330.233 159.126 326.038 168.915C325.758 169.754 325.478 170.594 325.199 171.433V173.949C325.199 177.585 326.318 180.103 328.555 181.501C329.953 182.34 331.492 182.76 333.169 182.76C337.365 182.76 342.4 180.801 348.273 176.886C354.426 172.691 360.579 167.796 366.732 162.202C373.165 156.329 378.898 150.875 383.932 145.841C388.966 140.527 392.463 136.612 394.42 134.095C395.259 132.976 396.239 132.416 397.358 132.416C398.756 132.416 400.015 133.256 401.133 134.934C402.252 136.332 402.112 137.87 400.713 139.548C397.637 143.463 391.904 149.617 383.513 158.008C375.123 166.119 366.452 173.67 357.502 180.662C348.553 187.654 340.441 191.15 333.169 191.15C329.534 191.15 326.457 190.311 323.94 188.633C319.185 185.556 316.808 181.081 316.808 175.208C316.808 169.055 318.766 162.482 322.681 155.49C326.876 148.218 331.351 141.506 336.106 135.353C341.14 128.92 344.636 123.886 346.594 120.25C348.832 116.614 351.07 112.978 353.307 109.342C355.544 105.706 356.664 101.791 356.664 97.5957C356.664 95.3582 355.964 93.1203 354.566 90.8828C353.167 88.3657 350.23 86.268 345.755 84.5898C341.28 82.6321 334.149 81.6533 324.36 81.6533C322.402 81.6533 320.164 81.7936 317.647 82.0732C315.13 82.3529 312.333 82.4922 309.256 82.4922H308.837C306.041 82.4922 304.642 81.0937 304.642 78.2969C304.642 75.5003 305.901 74.1016 308.417 74.1016C310.655 73.8219 313.032 73.6826 315.549 73.6826C318.066 73.4029 320.444 73.2627 322.681 73.2627ZM294.154 88.7852C295.552 88.7852 296.671 89.3451 297.51 90.4639C298.349 91.5825 298.488 92.9813 297.929 94.6592C296.531 98.5748 292.755 105.287 286.602 114.796C280.449 124.305 273.038 134.794 264.368 146.261C255.698 157.448 246.607 167.656 237.098 176.886C236.259 177.725 235.28 178.144 234.162 178.145C232.484 178.145 231.224 177.306 230.385 175.628C229.267 173.95 229.547 172.411 231.225 171.013C240.455 162.063 249.264 152.134 257.655 141.227C266.045 130.039 273.177 119.83 279.05 110.601C285.203 101.371 288.98 94.9386 290.378 91.3027C291.217 89.6246 292.476 88.7852 294.154 88.7852ZM312.194 28.793C318.347 28.7931 323.521 30.8908 327.716 35.0859C332.191 39.2812 334.428 44.5957 334.428 51.0283C334.428 54.3844 333.309 58.5793 331.072 63.6133C330.233 65.2914 328.974 66.1309 327.296 66.1309C325.898 66.1309 324.64 65.5716 323.521 64.4531C322.682 63.3344 322.682 61.9359 323.521 60.2578C324.919 56.9016 325.619 53.9644 325.619 51.4473C325.619 47.5318 324.359 44.1757 321.842 41.3789C319.325 38.5822 316.109 37.1837 312.194 37.1836C307.999 37.1836 303.523 39.1411 298.768 43.0566C294.293 46.9722 290.099 53.4056 286.183 62.3555C284.505 66.5508 281.288 73.1234 276.534 82.0732C271.779 91.0231 266.185 100.672 259.752 111.021C253.32 121.369 246.887 130.878 240.455 139.548C239.616 140.667 238.497 141.227 237.098 141.227C235.7 141.227 234.581 140.527 233.742 139.129C232.623 137.73 232.623 136.192 233.742 134.514C240.174 126.123 246.468 116.894 252.621 106.825C259.053 96.4769 264.507 86.9671 268.982 78.2969C273.737 69.3471 276.953 62.9146 278.631 58.999C283.106 48.0913 288.421 40.3998 294.574 35.9248C300.727 31.1703 306.6 28.793 312.194 28.793Z" fill="white"/>
<path d="M323.521 102.21C324.919 102.21 326.178 102.909 327.296 104.308C328.415 105.706 328.275 107.245 326.876 108.923C322.122 115.635 316.389 123.886 309.676 133.675C303.244 143.464 297.51 153.533 292.476 163.881C287.721 173.95 285.343 183.04 285.343 191.15C285.343 198.702 287.581 204.435 292.056 208.351C296.811 211.986 303.104 213.805 310.935 213.805C321.004 213.805 331.911 211.147 343.658 205.833C355.684 200.519 364.914 193.807 371.347 185.696C372.186 184.578 373.304 184.018 374.703 184.018C376.101 184.018 377.36 184.857 378.479 186.535C379.598 187.934 379.457 189.332 378.059 190.73C370.508 199.68 360.579 207.232 348.273 213.385C335.967 219.258 324.08 222.195 312.613 222.195C303.104 222.195 294.713 219.818 287.441 215.063C280.449 210.309 276.953 202.338 276.953 191.15C276.953 182.201 279.47 172.411 284.504 161.783C289.539 150.875 295.412 140.387 302.125 130.318C308.837 119.97 314.851 111.16 320.165 103.889C321.004 102.77 322.123 102.21 323.521 102.21ZM322.681 73.2627C333.589 73.2627 343.378 74.9407 352.048 78.2969C360.998 81.3734 365.473 87.387 365.473 96.3369C365.473 101.931 363.516 108.224 359.6 115.216C354.566 124.725 348.692 133.675 341.98 142.065C335.547 150.176 330.233 159.126 326.038 168.915C325.758 169.754 325.478 170.594 325.199 171.433V173.949C325.199 177.585 326.318 180.103 328.555 181.501C329.953 182.34 331.492 182.76 333.169 182.76C337.365 182.76 342.4 180.801 348.273 176.886C354.426 172.691 360.579 167.796 366.732 162.202C373.165 156.329 378.898 150.875 383.932 145.841C388.966 140.527 392.463 136.612 394.42 134.095C395.259 132.976 396.239 132.416 397.358 132.416C398.756 132.416 400.015 133.256 401.133 134.934C402.252 136.332 402.112 137.87 400.713 139.548C397.637 143.463 391.904 149.617 383.513 158.008C375.123 166.119 366.452 173.67 357.502 180.662C348.553 187.654 340.441 191.15 333.169 191.15C329.534 191.15 326.457 190.311 323.94 188.633C319.185 185.556 316.808 181.081 316.808 175.208C316.808 169.055 318.766 162.482 322.681 155.49C326.876 148.218 331.351 141.506 336.106 135.353C341.14 128.92 344.636 123.886 346.594 120.25C348.832 116.614 351.07 112.978 353.307 109.342C355.544 105.706 356.664 101.791 356.664 97.5957C356.664 95.3582 355.964 93.1203 354.566 90.8828C353.167 88.3657 350.23 86.268 345.755 84.5898C341.28 82.6321 334.149 81.6533 324.36 81.6533C322.402 81.6533 320.164 81.7936 317.647 82.0732C315.13 82.3529 312.333 82.4922 309.256 82.4922H308.837C306.041 82.4922 304.642 81.0937 304.642 78.2969C304.642 75.5003 305.901 74.1016 308.417 74.1016C310.655 73.8219 313.032 73.6826 315.549 73.6826C318.066 73.4029 320.444 73.2627 322.681 73.2627ZM294.154 88.7852C295.552 88.7852 296.671 89.3451 297.51 90.4639C298.349 91.5825 298.488 92.9813 297.929 94.6592C296.531 98.5748 292.755 105.287 286.602 114.796C280.449 124.305 273.038 134.794 264.368 146.261C255.698 157.448 246.607 167.656 237.098 176.886C236.259 177.725 235.28 178.144 234.162 178.145C232.484 178.145 231.224 177.306 230.385 175.628C229.267 173.95 229.547 172.411 231.225 171.013C240.455 162.063 249.264 152.134 257.655 141.227C266.045 130.039 273.177 119.83 279.05 110.601C285.203 101.371 288.98 94.9386 290.378 91.3027C291.217 89.6246 292.476 88.7852 294.154 88.7852ZM312.194 28.793C318.347 28.7931 323.521 30.8908 327.716 35.0859C332.191 39.2812 334.428 44.5957 334.428 51.0283C334.428 54.3844 333.309 58.5793 331.072 63.6133C330.233 65.2914 328.974 66.1309 327.296 66.1309C325.898 66.1309 324.64 65.5716 323.521 64.4531C322.682 63.3344 322.682 61.9359 323.521 60.2578C324.919 56.9016 325.619 53.9644 325.619 51.4473C325.619 47.5318 324.359 44.1757 321.842 41.3789C319.325 38.5822 316.109 37.1837 312.194 37.1836C307.999 37.1836 303.523 39.1411 298.768 43.0566C294.293 46.9722 290.099 53.4056 286.183 62.3555C284.505 66.5508 281.288 73.1234 276.534 82.0732C271.779 91.0231 266.185 100.672 259.752 111.021C253.32 121.369 246.887 130.878 240.455 139.548C239.616 140.667 238.497 141.227 237.098 141.227C235.7 141.227 234.581 140.527 233.742 139.129C232.623 137.73 232.623 136.192 233.742 134.514C240.174 126.123 246.468 116.894 252.621 106.825C259.053 96.4769 264.507 86.9671 268.982 78.2969C273.737 69.3471 276.953 62.9146 278.631 58.999C283.106 48.0913 288.421 40.3998 294.574 35.9248C300.727 31.1703 306.6 28.793 312.194 28.793Z" stroke="white"/>
<path d="M87.2746 193.248C80.5622 193.248 76.0872 190.591 73.8497 185.277C71.892 179.683 70.9131 175.068 70.9131 171.432C70.9131 164.44 73.2904 156.05 78.045 146.261C83.0793 136.472 89.5121 126.823 97.3433 117.313C105.174 107.804 113.565 99.9728 122.515 93.8198C131.465 87.387 139.855 84.1707 147.687 84.1707C151.043 84.1707 152.721 85.5691 152.721 88.3659C152.721 89.4846 152.301 90.6034 151.462 91.7221C150.623 92.5612 149.504 92.8409 148.106 92.5612C141.953 92.2815 134.961 94.9385 127.13 100.532C119.299 106.126 111.747 113.258 104.475 121.928C97.2034 130.598 91.1902 139.408 86.4356 148.358C81.6809 157.308 79.3036 165 79.3036 171.432C79.3036 175.348 80.0028 178.564 81.4012 181.081C82.7997 183.599 84.7575 184.857 87.2746 184.857C91.4699 184.857 96.2245 181.92 101.539 176.047C106.853 170.174 112.726 162.622 119.159 153.393C125.591 143.883 132.304 134.094 139.296 124.026C146.568 113.118 153.84 102.77 161.111 92.9807C168.663 82.9121 175.935 74.8012 182.927 68.6481C190.199 62.2154 197.051 58.999 203.484 58.999C207.12 58.999 210.476 60.1178 213.552 62.3552C216.629 64.5927 218.167 68.0888 218.167 72.8434C218.167 73.4028 217.328 76.4793 215.65 82.073C213.972 87.387 211.874 93.9596 209.357 101.791C207.12 109.622 204.742 117.453 202.225 125.284C199.708 132.836 197.47 139.548 195.513 145.422C193.835 151.015 192.716 154.372 192.156 155.49C191.317 157.168 190.199 158.007 188.8 158.007C187.402 158.007 186.143 157.448 185.024 156.329C184.185 155.211 184.046 153.812 184.605 152.134C185.164 151.015 186.283 147.659 187.961 142.065C189.919 136.472 192.017 129.899 194.254 122.348C196.771 114.796 199.149 107.245 201.386 99.6931C203.903 92.1417 205.861 85.8488 207.259 80.8144C208.937 75.7801 209.777 73.1231 209.777 72.8434C209.777 69.2075 207.679 67.3896 203.484 67.3896C199.848 67.3896 196.212 68.788 192.576 71.5848C185.584 76.0598 178.032 83.891 169.921 95.0783C161.811 105.986 153.7 117.593 145.589 129.899C138.597 140.247 131.605 150.316 124.613 160.105C117.9 169.894 111.328 177.865 104.895 184.018C98.462 190.171 92.5886 193.248 87.2746 193.248ZM45.7414 142.065C44.343 142.065 43.2243 141.506 42.3852 140.387C41.5462 138.989 41.686 137.451 42.8047 135.772C53.1531 123.466 63.6412 111.859 74.2693 100.952C84.8973 90.044 95.9448 81.0941 107.412 74.102C119.159 67.1099 131.605 63.6138 144.75 63.6138C148.665 63.6138 152.161 63.8935 155.238 64.4529C158.594 65.0122 161.391 66.131 163.629 67.8091C164.747 68.6481 165.307 69.7669 165.307 71.1653C165.307 72.5637 164.607 73.8223 163.209 74.941C161.811 75.7801 160.272 75.6402 158.594 74.5215C156.636 72.8434 152.022 72.0044 144.75 72.0044C133.283 72.0044 122.235 75.2207 111.607 81.6535C100.979 87.8065 90.6308 96.0572 80.5622 106.406C70.4935 116.754 60.285 127.941 49.9367 139.968C48.818 141.366 47.4195 142.065 45.7414 142.065ZM30.2189 314.911C26.583 315.19 22.8073 314.211 18.8917 311.974C14.6964 310.016 12.5988 306.38 12.5988 301.066C12.5988 294.913 15.5355 288.341 21.4088 281.348C27.2822 274.636 34.6939 267.924 43.6438 261.211C52.314 254.778 61.1241 248.765 70.074 243.171C79.0239 237.578 86.5754 232.823 92.7285 228.908C93.8472 228.348 94.5464 228.068 94.8261 228.068C96.2245 228.068 97.2034 228.488 97.7628 229.327C98.6018 230.446 99.0214 231.565 99.0214 232.683C99.0214 234.082 98.462 235.2 97.3433 236.039C92.3089 239.396 85.7363 243.591 77.6255 248.625C69.5146 253.66 61.4038 258.974 53.2929 264.567C45.1821 270.441 38.1899 276.314 32.3166 282.187C26.1635 288.061 22.3877 293.515 20.9893 298.549C20.9893 298.829 20.9893 299.108 20.9893 299.388C20.7096 299.947 20.5698 300.367 20.5698 300.647C20.5698 304.562 23.2268 306.52 28.5408 306.52C38.3298 306.52 48.9578 302.465 60.4249 294.354C72.1716 286.243 83.7786 275.335 95.2456 261.631C106.713 248.206 117.481 233.382 127.549 217.161C137.618 200.659 146.148 184.158 153.14 167.657C160.133 151.155 164.747 136.052 166.985 122.348C167.264 120.11 168.663 118.991 171.18 118.991C172.299 118.991 173.278 119.411 174.117 120.25C175.235 121.089 175.655 122.348 175.375 124.026C173.138 137.73 168.523 152.973 161.531 169.754C154.539 186.535 145.869 203.316 135.52 220.097C125.172 236.879 113.985 252.261 101.958 266.245C89.9316 280.509 77.7653 291.976 65.4592 300.647C53.1531 309.597 41.4063 314.351 30.2189 314.911ZM26.8627 344.278C20.1503 344.278 13.8574 342.32 7.98398 338.404C1.83092 334.768 -0.686251 328.475 0.432486 319.525C0.432486 317.008 1.69107 315.75 4.20824 315.75C5.32697 315.75 6.44571 316.169 7.56445 317.008C8.40351 317.847 8.68319 318.966 8.40351 320.364C7.84414 325.678 9.3824 329.594 13.0183 332.111C16.3745 334.628 20.9893 335.887 26.8627 335.887C40.2876 335.887 53.1531 332.531 65.4592 325.818C78.045 319.386 89.9316 310.575 101.119 299.388C112.586 288.48 122.934 276.314 132.164 262.889C141.673 249.464 150.064 235.76 157.336 221.776C164.887 208.071 170.9 195.066 175.375 182.76C176.494 179.683 177.193 177.725 177.473 176.886C178.032 175.767 179.85 174.509 182.927 173.11C189.08 170.314 196.771 166.118 206.001 160.525C215.23 154.931 224.74 145.841 234.529 133.255C235.368 132.137 236.486 131.577 237.885 131.577C239.283 131.577 240.402 132.416 241.241 134.094C242.36 135.493 242.36 136.891 241.241 138.29C232.851 149.477 223.901 158.287 214.391 164.72C204.882 170.873 194.813 176.746 184.185 182.34C179.71 194.366 173.837 207.651 166.565 222.195C159.293 236.739 150.623 251.142 140.555 265.406C130.766 279.67 119.858 292.676 107.831 304.422C96.0847 316.449 83.359 326.098 69.6545 333.37C55.9499 340.642 41.686 344.278 26.8627 344.278ZM75.9474 220.517C65.599 220.517 56.9288 217.301 49.9367 210.868C42.9446 204.435 39.4485 195.625 39.4485 184.438C39.4485 183.039 39.5884 181.501 39.868 179.823C39.868 178.145 40.0079 176.467 40.2876 174.789C40.5673 172.551 41.8258 171.432 44.0633 171.432C47.1398 171.432 48.6781 172.831 48.6781 175.628C48.6781 177.026 48.5383 178.564 48.2586 180.242C47.9789 181.641 47.8391 182.899 47.8391 184.018C47.8391 192.688 50.4961 199.541 55.8101 204.575C61.1241 209.609 67.6967 212.126 75.5279 212.126C84.1981 212.126 93.7074 209.05 104.056 202.897C114.404 196.744 124.053 186.535 133.003 172.271C133.842 170.873 134.961 170.174 136.359 170.174C137.758 170.174 138.876 170.873 139.716 172.271C140.834 173.39 140.834 174.789 139.716 176.467C130.206 191.57 119.718 202.757 108.251 210.029C97.0636 217.021 86.2957 220.517 75.9474 220.517Z" fill="white"/>
</svg>
