<svg xmlns="http://www.w3.org/2000/svg" viewBox="0 0 168 168">
  <path fill="#FFFFFF" d="M84,0C37.6,0,0,37.6,0,84c0,46.4,37.6,84,84,84c46.4,0,84-37.6,84-84C168,37.6,130.4,0,84,0z M122.9,120.5c-1.3,2.2-4.2,2.9-6.4,1.6c-17.7-10.8-39.2-13.4-65.7-7.7c-2.5,0.5-5-1.1-5.5-3.6c-0.5-2.5,1.1-5,3.6-5.5c28.5-6.2,52.2-3.2,72.6,9.2C123.6,115.4,124.2,118.3,122.9,120.5L122.9,120.5z M135.5,99.9c-1.5,2.6-4.9,3.5-7.5,2c-20.9-12.7-47.8-16.4-78.2-9.1c-3,0.7-6.1-0.9-6.8-3.9c-0.7-3,0.9-6.1,3.9-6.8c33.3-7.7,63.1-3.6,86.2,10.6C137.6,94.9,137.9,98.3,135.5,99.9L135.5,99.9z M135.2,79.5c-27.1-16.5-68.5-17.7-97.9-9.1c-3.5,1-7.1-0.9-8.1-4.4c-1-3.5,0.9-7.1,4.4-8.1c33.8-9.8,79.6-8.5,110.1,10c3,1.9,4,5.6,2.1,8.6C143.7,78.2,139.3,81.4,135.2,79.5L135.2,79.5z" />
</svg>